<svg viewBox="0 0 24 24" fill="none" xmlns="http://www.w3.org/2000/svg">
  <path d="M8.851 18.56s-.917.534.653.714c1.902.218 2.874.187 4.969-.211 0 0 .552.346 1.321.646-4.699 2.013-10.633-.118-6.943-1.149M8.276 15.933s-1.028.761.542.924c2.032.209 3.636.227 6.413-.308 0 0 .384.389.987.602-5.679 1.661-12.007.13-7.942-1.218" fill="#ED8B00"/>
  <path d="M13.116 11.475c1.158 1.333-.304 2.533-.304 2.533s2.939-1.518 1.589-3.418c-1.261-1.772-2.228-2.652 3.007-5.688 0-.001-8.216 2.051-4.292 6.573" fill="#ED8B00"/>
  <path d="M19.33 20.504s.679.559-.747.991c-2.712.822-11.288 1.069-13.669.033-.856-.373.75-.89 1.254-.998.527-.114.828-.093.828-.093-.953-.671-6.156 1.317-2.643 1.887 9.58 1.553 17.462-.7 14.977-1.82" fill="#ED8B00"/>
  <path d="M16.405 5.501c-.115 0-.193.014-.274.033v.013h.014c.054.104.146.18.214.273.054.107.1.214.154.32l.014-.015c.094-.066.14-.172.14-.333-.04-.047-.046-.094-.08-.14-.04-.067-.126-.1-.18-.151z" fill="#5382A1"/>
  <path d="M18.79 1.5c0 .104-.014.18-.033.274-.8.257-1.26.894-1.26 1.608 0 .714.46 1.351 1.26 1.608.02.094.033.17.033.274 0 1.104-.896 2-2 2s-2-.896-2-2c0-.104.014-.18.033-.274.8-.257 1.26-.894 1.26-1.608 0-.714-.46-1.351-1.26-1.608C14.804 1.68 14.79 1.604 14.79 1.5c0-1.104.896-2 2-2s2 .896 2 2z" fill="#5382A1"/>
</svg>